<?xml version="1.0" encoding="UTF-8"?>
<svg xmlns="http://www.w3.org/2000/svg" width="121" height="24" viewBox="0 0 121 24" fill="none">
  <path d="M8.77971 0V10.0294C8.77971 10.9266 8.84379 11.7597 8.04272 12.3685C7.30574 12.9773 6.05608 13.1696 4.71028 13.1696C2.65955 13.1696 0.480643 12.6889 0.480643 12.6889L0 13.9706C0 13.9706 3.04406 14.6115 5.25501 14.6435C7.11349 14.6756 8.74766 14.259 9.64486 13.2336C10.3818 12.4005 10.6061 11.4393 10.5741 9.80508V0H8.77971Z" transform="translate(28.5186 4.74243)" fill="white"></path>
  <path d="M12.2724 1.1215C10.9266 0.384513 9.2924 0 7.43392 0C5.60748 0 3.9733 0.384513 2.59546 1.1215C0.865156 2.05073 0 3.42857 0 5.15888C0 6.88919 0.865156 8.26703 2.59546 9.19626C3.9733 9.93325 5.57544 10.3178 7.43392 10.3178C9.26035 10.3178 10.8945 9.93325 12.2403 9.19626C13.9706 8.26703 14.8358 6.88919 14.8358 5.15888C14.8358 3.39653 13.9706 2.05073 12.2724 1.1215ZM11.215 8.1709C10.1575 8.77971 8.90788 9.06809 7.43392 9.06809C5.92791 9.06809 4.6462 8.77971 3.62083 8.20294C2.37116 7.498 1.76235 6.50467 1.76235 5.15888C1.76235 3.84513 2.40321 2.81976 3.62083 2.11482C4.6462 1.53805 5.92791 1.24967 7.43392 1.24967C8.90788 1.24967 10.1896 1.53805 11.247 2.11482C12.4646 2.81976 13.1055 3.84513 13.1055 5.15888C13.0734 6.44059 12.4646 7.46596 11.215 8.1709Z" transform="translate(39.9893 9.16431)" fill="white"></path>
  <path d="M12.2724 1.1215C10.9266 0.384513 9.29239 0 7.43391 0C5.60748 0 3.9733 0.384513 2.59546 1.1215C0.865151 2.05073 0 3.42857 0 5.15888C0 6.88919 0.865151 8.26703 2.59546 9.19626C3.9733 9.93325 5.57543 10.3178 7.43391 10.3178C9.26035 10.3178 10.8945 9.93325 12.2403 9.19626C13.9706 8.26703 14.8358 6.88919 14.8358 5.15888C14.8358 3.39653 13.9706 2.05073 12.2724 1.1215ZM11.215 8.1709C10.1575 8.77971 8.90788 9.06809 7.43391 9.06809C5.9279 9.06809 4.64619 8.77971 3.62082 8.20294C2.37116 7.498 1.76235 6.50467 1.76235 5.15888C1.76235 3.84513 2.4032 2.81976 3.62082 2.11482C4.64619 1.53805 5.9279 1.24967 7.43391 1.24967C8.90788 1.24967 10.1896 1.53805 11.247 2.11482C12.4646 2.81976 13.1055 3.84513 13.1055 5.15888C13.0734 6.44059 12.4646 7.46596 11.215 8.1709Z" transform="translate(55.7549 9.16431)" fill="white"></path>
  <path d="M18.2003 0.865155C17.239 0.288386 15.9893 0 14.5154 0C12.6248 0 11.1188 0.57677 9.96529 1.73031C8.87584 0.57677 7.33778 0 5.44726 0C3.90921 0 2.65954 0.320428 1.69826 0.92924C1.69826 0.70494 1.69826 0.128171 1.69826 0.128171H0V10.0935H1.69826V3.3004C1.82643 2.81976 2.14686 2.37116 2.65954 1.98665C3.36448 1.50601 4.26168 1.24967 5.38317 1.24967C6.3765 1.24967 7.20962 1.44192 7.91456 1.85848C8.74767 2.33912 9.13218 2.97997 9.13218 3.87717V10.1575H10.7984V3.84513C10.7984 2.94793 11.1829 2.30708 12.016 1.82644C12.721 1.44192 13.5861 1.21762 14.5794 1.21762C15.5728 1.21762 16.4379 1.40988 17.1429 1.82644C17.976 2.30708 18.3605 2.94793 18.3605 3.84513V10.1255H20.0587V4.06943C20.0267 2.65955 19.3858 1.5701 18.2003 0.865155Z" transform="translate(71.584 9.16431)" fill="white"></path>
  <path d="M0 0V14.5474H1.69826V0H0Z" transform="translate(92.9561 4.74243)" fill="white"></path>
  <path d="M0 0V11.247H1.69826V0H0Z" transform="translate(113.592 4.74243)" fill="white"></path>
  <path d="M13.1375 0.160214C13.1375 0.160214 13.1375 1.53805 13.1375 1.85848C11.6956 0.640855 9.77302 0 7.40186 0C5.51134 0 3.87717 0.35247 2.53137 1.08945C0.865152 2.01869 0 3.36449 0 5.15888C0 6.92123 0.865146 8.29906 2.59545 9.19626C3.94125 9.93324 5.57543 10.2857 7.46595 10.2857C8.39519 10.2857 9.32443 10.1896 10.1575 9.96529C11.3431 9.64486 12.3364 9.19626 13.1055 8.58745C13.1055 8.93992 13.1055 10.1255 13.1055 10.1255H14.8037V0.160214H13.1375ZM1.79439 5.19092C1.79439 3.87717 2.43525 2.8518 3.65287 2.14686C4.67824 1.57009 5.99199 1.28171 7.498 1.28171C9.35648 1.28171 10.7984 1.73031 11.8238 2.6275C12.721 3.42857 13.1696 4.45394 13.1696 5.70361C13.1696 5.70361 13.1696 6.79306 13.1696 6.88919C12.4646 7.69025 11.4072 8.29906 10.0614 8.71562C9.26035 8.97196 8.39519 9.10013 7.498 9.10013C5.95995 9.10013 4.67824 8.81175 3.65287 8.26702C2.4032 7.53004 1.79439 6.53671 1.79439 5.19092Z" transform="translate(96.001 9.13184)" fill="white"></path>
  <path d="M1.34579 0C0.160208 0 0 0.608811 0 0.993324C0 1.37784 0.192251 1.98665 1.34579 1.98665C2.53137 1.98665 2.69159 1.34579 2.69159 0.993324C2.69159 0.640854 2.49933 0 1.34579 0Z" transform="translate(113.111 17.3989)" fill="white"></path>
  <path d="M3.58878 1.82644C3.58878 2.81976 2.94793 3.65287 1.79439 3.65287C0.640857 3.65287 0 2.81976 0 1.82644C0 0.833111 0.640857 0 1.79439 0C2.94793 0 3.58878 0.833111 3.58878 1.82644ZM0.384507 1.82644C0.384507 2.65955 0.897198 3.3004 1.79439 3.3004C2.69159 3.3004 3.20427 2.65955 3.20427 1.82644C3.20427 0.993325 2.69159 0.35247 1.79439 0.35247C0.897198 0.35247 0.384507 0.993325 0.384507 1.82644ZM2.14686 2.05073C2.8518 1.92256 2.78771 0.865154 1.98664 0.865154H1.1215V2.72363H1.47397V2.08278H1.79439L2.30707 2.72363H2.69159V2.65955L2.14686 2.05073ZM1.98664 1.18558C2.4032 1.18558 2.4032 1.79439 1.98664 1.79439H1.47397V1.18558H1.98664Z" transform="translate(116.956 4.71021)" fill="white"></path>
  <path d="M4.29373 12.0801L3.84513 11.6315C2.4032 10.1896 1.98665 8.1709 2.49933 6.34446C1.05741 6.02403 0 4.74232 0 3.20427C0 1.44192 1.44192 0 3.20427 0C4.80641 0 6.12016 1.15354 6.3765 2.69159C8.10681 2.27503 9.99733 2.75567 11.3431 4.10147L11.5354 4.29373L9.16422 6.66489L8.97196 6.47263C8.20294 5.70361 6.95327 5.70361 6.18425 6.47263C5.41522 7.24166 5.41522 8.49132 6.18425 9.26035L6.63285 9.70895L9.00401 12.0801L11.5033 14.5794L9.13218 16.9506L6.63285 14.4513L4.29373 12.0801Z" fill="white"></path>
  <path d="M0 9.42056L2.49933 6.92123L4.8705 4.55007L5.31909 4.10147C6.72897 2.69159 8.77971 2.24299 10.5741 2.75568C10.7984 1.18558 12.1442 0 13.7463 0C15.5087 0 16.9506 1.44192 16.9506 3.20427C16.9506 4.83845 15.733 6.18425 14.1629 6.3765C14.6756 8.1709 14.227 10.1896 12.8171 11.5995L12.6248 11.7917L10.3178 9.42056L10.51 9.22831C11.279 8.45928 11.279 7.20961 10.51 6.44059C9.74099 5.67156 8.49132 5.67156 7.7223 6.44059L7.2737 6.88919L4.90254 9.26035L2.40321 11.7597L0 9.42056Z" transform="translate(6.9541 0.0322266)" fill="white"></path>
  <path d="M5.51135 14.1629C3.68491 14.7076 1.63418 14.2911 0.192256 12.8491L0 12.6569L2.37116 10.2857L2.56342 10.478C3.33244 11.247 4.58211 11.247 5.35113 10.478C6.12016 9.70895 6.12016 8.45928 5.35113 7.69026L4.90254 7.24166L2.53138 4.8705L0.0320422 2.37116L2.4032 0L4.90254 2.49933L7.2737 4.8705L7.75434 5.35114C9.10013 6.69693 9.58077 8.61949 9.16422 10.3818C10.7343 10.6061 11.9199 11.9519 11.9199 13.5541C11.9199 15.3164 10.478 16.7583 8.71562 16.7583C7.11348 16.7263 5.79973 15.6048 5.51135 14.1629Z" transform="translate(12.1113 7.2417)" fill="white"></path>
  <path d="M16.6943 2.37116L14.1949 4.8705L11.8238 7.24166L11.3752 7.69026C9.99733 9.06809 8.07477 9.51669 6.34446 9.10014C6.02403 10.5421 4.74232 11.5995 3.20427 11.5995C1.44192 11.5995 0 10.1575 0 8.3952C0 6.88919 1.05741 5.60748 2.46729 5.28705C2.01869 3.49266 2.46729 1.57009 3.84513 0.192256L4.03739 0L6.40855 2.37116L6.21629 2.56342C5.44727 3.33244 5.44727 4.58211 6.21629 5.35114C6.98532 6.12016 8.23498 6.12016 9.00401 5.35114L9.45261 4.90254L11.8238 2.53138L14.3231 0.0320422L16.6943 2.37116Z" transform="translate(0 12.3684)" fill="white"></path>
</svg>
