<?xml version="1.0" encoding="UTF-8"?>
<svg xmlns="http://www.w3.org/2000/svg" width="124" height="24" viewBox="0 0 124 24" fill="none">
  <path d="M76.5726 78.2767C76.5726 89.8139 73.1416 99.532 66.2553 107.399C59.0691 115.641 49.7313 119.779 38.3007 119.779C26.8398 119.779 17.5323 115.641 10.3457 107.399C3.45661 99.532 0 89.8139 0 78.2767C0 66.7077 3.45661 56.9927 10.3457 49.1542C17.612 40.9886 26.9501 36.9079 38.3007 36.9079C49.7313 36.9079 59.0691 40.9886 66.2553 49.1542C73.1416 56.9927 76.5726 66.7077 76.5726 78.2767ZM53.814 78.2767C53.814 73.0509 52.5631 68.64 50.0587 65.0739C47.2566 61.0203 43.3353 59.0067 38.3007 59.0067C33.2642 59.0067 29.3444 61.0203 26.5395 65.0739C24.0092 68.64 22.7571 73.0509 22.7571 78.2767C22.7571 83.4734 24.0092 87.9372 26.5395 91.6106C29.3444 95.6642 33.2642 97.6809 38.3007 97.6809C43.3353 97.6809 47.2566 95.6642 50.0587 91.6106C52.5631 87.9372 53.814 83.4734 53.814 78.2767ZM158.86 78.2767C158.86 89.0535 155.757 98.4698 149.523 106.526C142.854 115.343 134.252 119.779 123.799 119.779C116.421 119.779 110.163 117.63 105.045 113.385C105.045 114.362 105.154 116.731 105.372 120.517C105.59 124.323 105.697 127.426 105.697 129.876C105.697 143.406 101.668 150.154 93.6129 150.154C90.3177 150.154 87.6245 148.983 85.4729 146.669C83.3501 144.331 82.2878 141.522 82.2878 138.206V50.2164C82.2878 47.0046 83.3773 44.2274 85.5545 41.8891C87.7315 39.575 90.4278 38.4074 93.6398 38.4074C98.4831 38.4074 102.023 40.8242 104.256 45.6453C109.019 39.8211 115.525 36.9079 123.772 36.9079C134.252 36.9079 142.826 41.2601 149.523 49.9991C155.73 58.0833 158.86 67.4996 158.86 78.2767ZM136.102 78.2767C136.102 73.0509 134.825 68.64 132.321 65.0739C129.514 61.0203 125.596 59.0067 120.56 59.0067C115.525 59.0067 111.605 61.0203 108.8 65.0739C106.296 68.64 105.045 73.0509 105.045 78.2767C105.045 83.4734 106.296 87.9372 108.8 91.6106C111.605 95.6642 115.525 97.6809 120.56 97.6809C125.596 97.6809 129.514 95.6642 132.321 91.6106C134.825 87.9372 136.102 83.4734 136.102 78.2767ZM241.664 75.8297C241.664 79.6359 240.765 82.2487 238.968 83.7211C237.173 85.1616 234.369 85.8964 230.585 85.8964H189.509C189.509 90.2513 191.551 93.5973 195.634 95.9356C198.928 97.7625 202.956 98.6902 207.719 98.6902C211.424 98.6902 215.86 97.4608 221.059 95.0425C226.258 92.5911 229.605 91.3917 231.05 91.3917C233.689 91.3917 235.92 92.3454 237.772 94.3049C239.594 96.2388 240.522 98.5786 240.522 101.274C240.522 107.503 235.868 112.353 226.555 115.835C219.452 118.446 212.238 119.779 204.863 119.779C192.995 119.779 183.413 115.835 176.091 107.971C168.767 100.104 165.095 90.2241 165.095 78.2767C165.095 66.8978 168.904 57.1829 176.525 49.0757C184.119 40.9614 193.567 36.9079 204.835 36.9079C215.315 36.9079 224.079 40.7457 231.104 48.4197C238.125 56.0966 241.664 65.2399 241.664 75.8297ZM218.909 70.1108C218.799 66.626 217.193 63.4702 214.09 60.6101C210.986 57.7544 207.694 56.3411 204.208 56.3411C200.616 56.3411 197.267 57.7544 194.164 60.6101C191.062 63.4702 189.509 66.626 189.509 70.1108H218.909ZM318.126 106.332C318.126 109.656 317.065 112.457 314.944 114.798C312.792 117.114 310.096 118.284 306.803 118.284C298.855 118.284 294.879 111.97 294.879 99.369C294.879 96.9464 295.044 93.1374 295.37 87.8844C295.724 82.6573 295.889 78.8211 295.889 76.3985C295.889 63.0328 291.56 56.3411 282.931 56.3411C274.301 56.3411 270.001 63.0328 270.001 76.3985C270.001 78.8211 270.137 82.6573 270.381 87.8844C270.654 93.1374 270.79 96.9464 270.79 99.369C270.79 111.97 266.87 118.284 259.032 118.284C255.737 118.284 253.043 117.114 250.919 114.798C248.769 112.457 247.707 109.656 247.707 106.332V50.1923C247.707 46.893 248.769 44.0947 250.919 41.8347C253.043 39.5478 255.765 38.4074 259.059 38.4074C264.503 38.4074 268.285 40.8242 270.408 45.6453C274.084 39.8211 280.588 36.9079 289.899 36.9079C298.528 36.9079 305.388 39.192 310.424 43.7371C315.569 48.6126 318.126 55.3046 318.126 63.8247V106.332ZM389.524 103.914C389.524 109.057 386.182 113.138 379.482 116.135C374.177 118.554 368.41 119.797 362.579 119.779C351.115 119.779 341.809 115.641 334.623 107.399C327.735 99.532 324.278 89.8139 324.278 78.2767C324.278 66.7077 327.791 56.9399 334.84 48.9372C341.889 40.9101 351.115 36.9079 362.579 36.9079C369.193 36.9079 374.882 37.8872 379.621 39.8211C386.232 42.4338 389.524 46.5143 389.524 52.0674C389.524 54.8687 388.655 57.3458 386.912 59.497C385.171 61.6194 382.936 62.7085 380.218 62.7085C378.363 62.7085 375.695 62.0825 372.213 60.8605C368.729 59.6055 365.956 59.0067 363.915 59.0067C358.495 59.0067 354.275 60.939 351.254 64.8022C348.45 68.287 347.034 72.7508 347.034 78.2767C347.034 83.4734 348.286 87.8844 350.821 91.4492C353.619 95.6141 357.571 97.6809 362.604 97.6809C364.839 97.6809 367.885 97.0277 371.777 95.691C375.673 94.3893 378.477 93.7089 380.218 93.7089C382.75 93.7089 384.924 94.7952 386.779 96.9192C388.603 99.0689 389.524 101.38 389.524 103.914ZM472.248 106.332C472.248 109.656 471.187 112.457 469.063 114.798C466.915 117.114 464.194 118.284 460.895 118.284C455.942 118.284 452.405 115.86 450.281 111.044C445.519 116.87 439.011 119.779 430.766 119.779C420.207 119.779 411.55 115.343 404.85 106.526C398.753 98.4698 395.683 89.0535 395.683 78.2767C395.683 67.4996 398.753 58.0833 404.85 49.9991C411.658 41.2601 420.284 36.9079 430.766 36.9079C439.011 36.9079 445.519 39.8211 450.281 45.6453C452.405 40.8242 455.942 38.4074 460.895 38.4074C464.11 38.4074 466.806 39.575 468.986 41.8891C471.16 44.2274 472.248 46.9773 472.248 50.1923V106.332ZM449.492 78.2767C449.492 73.0509 448.243 68.64 445.736 65.0739C442.823 61.0203 438.903 59.0067 433.978 59.0067C428.941 59.0067 425.024 61.0203 422.217 65.0739C419.688 68.64 418.439 73.0509 418.439 78.2767C418.439 83.4734 419.657 87.9372 422.078 91.6106C424.968 95.6642 428.941 97.6809 433.978 97.6809C439.011 97.6809 442.932 95.6642 445.736 91.6106C448.243 87.9372 449.492 83.4734 449.492 78.2767ZM530.312 48.6911C530.312 53.5624 527.943 56.9096 523.207 58.7319C518.826 60.2043 514.466 61.7038 510.113 63.2501C505.345 65.9744 502.98 71.0357 502.98 78.3852V106.332C502.98 109.656 501.889 112.457 499.771 114.798C497.616 117.114 494.895 118.284 491.602 118.284C488.285 118.284 485.558 117.114 483.44 114.798C481.285 112.457 480.225 109.656 480.225 106.332V50.1923C480.225 46.893 481.285 44.0947 483.409 41.8347C485.558 39.5478 488.285 38.4074 491.578 38.4074C497.019 38.4074 500.801 40.8242 502.928 45.6453C507.8 39.8211 513.029 36.9079 518.662 36.9079C521.871 36.9079 524.623 38.0757 526.908 40.3896C529.165 42.7309 530.312 45.5065 530.312 48.6911ZM589.68 49.7261C589.68 54.7871 587.692 57.9717 583.75 59.3353C581.811 60.0141 577.752 60.3672 571.575 60.3672V106.332C571.575 109.656 570.486 112.457 568.368 114.798C566.213 117.114 563.493 118.284 560.2 118.284C556.991 118.284 554.264 117.114 552.084 114.798C549.91 112.457 548.822 109.656 548.822 106.332V60.3672C544.138 60.3672 540.737 59.7684 538.588 58.6008C535.651 56.9671 534.198 53.9998 534.198 49.7261C534.198 45.4552 535.697 42.5423 538.718 40.9886C540.762 39.8452 544.138 39.2492 548.822 39.2492V29.5055C548.822 18.0484 552.6 12.3338 560.2 12.3338C567.765 12.3338 571.575 18.0484 571.575 29.5055V39.2492C577.752 39.2492 581.811 39.6022 583.75 40.281C587.692 41.6418 589.68 44.802 589.68 49.7261ZM772.5 35.9063C772.438 28.9203 759.527 25.7493 726.105 25.7493C647.685 25.7493 627.789 22.4002 606.499 0C615.456 13.4501 620.357 38.6776 703.244 37.4222C789.724 36.0902 736.966 59.7171 721.616 86.4108C749.299 61.7069 772.417 45.4237 772.5 36.0074V35.9063ZM662.303 107.642C662.3 114.135 656.957 119.478 650.461 119.479C643.901 119.479 638.595 114.175 638.595 107.642C638.595 107.639 638.595 107.636 638.595 107.633C638.595 101.128 643.947 95.7758 650.455 95.7758C650.458 95.7758 650.458 95.7758 650.461 95.7758C657 95.7758 662.303 101.081 662.303 107.642ZM716.307 107.642C716.304 114.135 710.961 119.478 704.465 119.479C697.911 119.479 692.602 114.175 692.602 107.642C692.602 107.639 692.602 107.636 692.602 107.633C692.602 101.128 697.954 95.7758 704.459 95.7758C704.462 95.7758 704.462 95.7758 704.465 95.7758C711.005 95.7758 716.307 101.081 716.307 107.642Z" transform="scale(0.16 0.159836)" fill="white"></path>
</svg>
