<?xml version="1.0" encoding="UTF-8"?>
<svg xmlns="http://www.w3.org/2000/svg" width="92" height="17" viewBox="0 0 92 17" fill="none">
  <path d="M1.88344 5.17378C1.87179 5.10406 1.86613 4.99325 1.86613 4.84169C1.86613 3.88619 2.18 3.1405 2.80792 2.60432C3.43584 2.0683 4.12994 1.80021 4.89004 1.80021C5.89219 1.80021 6.58903 2.18483 6.98073 2.95408L1.88344 5.17378ZM9.17513 3.81041C9.16349 2.6801 8.74331 1.76256 7.91396 1.05747C7.08444 0.352545 6.04168 0 4.78633 0C3.9916 0 3.237 0.177746 2.52301 0.533074C1.80853 0.888729 1.20989 1.4421 0.725966 2.19384C0.242204 2.94541 0 3.81663 0 4.80699C0 6.24025 0.466614 7.3938 1.39968 8.2678C2.3329 9.1418 3.44992 9.5788 4.75187 9.5788C6.23794 9.5788 7.52792 9.00792 8.62245 7.86583L7.48181 6.58969C6.81376 7.40559 5.96419 7.81345 4.93308 7.81345C3.90197 7.81345 3.08718 7.44061 2.48822 6.69477L9.19245 3.8456L9.17513 3.81041Z" transform="translate(16.208 4.17017)" fill="white"></path>
  <path d="M3.20529 0.576938C2.66943 0.950106 2.24601 1.4277 1.93521 2.0102V0.140102H0V9.43903H1.93521V5.45366C1.93521 4.3934 2.17709 3.54853 2.66118 2.91922C3.14461 2.29007 3.86459 1.97534 4.82095 1.97534H4.92466L4.90735 0C4.30791 0.0119479 3.74082 0.204261 3.20529 0.576938Z" transform="translate(10.7842 4.16992)" fill="white"></path>
  <path d="M6.44504 4.70192C6.13391 4.49209 5.84301 4.32908 5.57249 4.21254C5.30164 4.09601 5.02223 3.99126 4.73456 3.89781C4.4464 3.80484 4.11521 3.71171 3.74082 3.61826C3.36643 3.52513 3.07569 3.42594 2.86843 3.32103C2.56879 3.18126 2.4193 2.95998 2.4193 2.65702C2.4193 2.31904 2.56313 2.06568 2.85112 1.89661C3.13879 1.72787 3.51334 1.64325 3.97413 1.64325C4.84927 1.64325 5.66163 1.89383 6.41057 2.39482L7.13622 0.94405C6.19167 0.314901 5.18936 0 4.12977 0C3.06986 0 2.2088 0.259581 1.54642 0.778088C0.883879 1.2966 0.552846 1.98712 0.552846 2.84933C0.552846 4.07293 1.50905 4.94661 3.42128 5.47101C3.46707 5.48279 3.53615 5.50619 3.62854 5.54106C4.84927 5.91406 5.46004 6.33355 5.46004 6.79968C5.46004 7.11425 5.33303 7.37351 5.07982 7.57744C4.82646 7.78137 4.48087 7.88318 4.04322 7.88318C3.04107 7.88318 2.00446 7.47547 0.933062 6.65958L0 8.18024C0.552848 8.62313 1.18918 8.96684 1.90916 9.21152C2.62914 9.45621 3.32307 9.57864 3.99112 9.57864C4.98194 9.57864 5.79398 9.31366 6.42772 8.78336C7.06098 8.25307 7.37794 7.54536 7.37794 6.65958C7.37794 5.77412 7.06697 5.12141 6.44504 4.70192Z" transform="translate(25.875 4.17017)" fill="white"></path>
  <path d="M6.7128 6.10899C6.30363 6.54583 5.53479 6.76449 4.40612 6.76449H2.03892V1.8701H4.1123C5.21816 1.8701 6.0302 2.0449 6.54858 2.39466C7.06697 2.74426 7.32616 3.34149 7.32616 4.18636C7.32616 5.03139 7.12165 5.67183 6.7128 6.10899ZM8.15551 1.06631C7.31451 0.355655 5.97826 0 4.14676 0H0V12.2181H2.03892V8.63491H4.18138C5.95545 8.63491 7.27131 8.29121 8.12963 7.60363C8.98745 6.91638 9.41685 5.83239 9.41685 4.35248C9.41685 2.87274 8.99619 1.77713 8.15551 1.06631Z" transform="translate(0 1.39087)" fill="white"></path>
  <path d="M3.24849 10.6623C2.83381 10.6623 2.5112 10.531 2.28097 10.269C2.05041 10.0068 1.93521 9.65458 1.93521 9.21152V4.49209H4.3545V2.91906H1.93521V0H0V9.15915C0 10.1381 0.290743 10.9158 0.872552 11.4926C1.45404 12.0695 2.15671 12.3578 2.9804 12.3578C3.80393 12.3578 4.55561 12.0492 5.23531 11.4314L4.44042 10.0503C4.06085 10.4587 3.66332 10.6623 3.24849 10.6623Z" transform="translate(34.5322 1.39087)" fill="white"></path>
  <path d="M6.70423 7.0005C6.17419 7.56582 5.52945 7.84815 4.76902 7.84815C4.00892 7.84815 3.34621 7.5686 2.78187 7.00934C2.21738 6.44975 1.93537 5.72453 1.93537 4.83302C1.93537 3.94151 2.21188 3.19861 2.76473 2.60432C3.31773 2.01003 3.97979 1.71297 4.75187 1.71297C5.52346 1.71297 6.17419 2.01003 6.70423 2.60432C7.2341 3.19861 7.49912 3.93889 7.49912 4.82434C7.49896 5.71013 7.23394 6.43535 6.70423 7.0005ZM7.4645 1.74816C6.68109 0.582993 5.68461 0 4.4752 0C3.26564 0 2.21738 0.431271 1.33059 1.29349C0.443313 2.15586 0 3.30974 0 4.75429C0 6.19934 0.431988 7.365 1.2958 8.25029C2.15978 9.13574 3.17341 9.57864 4.33703 9.57864C4.91285 9.57864 5.48609 9.43608 6.05608 9.15031C6.62624 8.86503 7.09561 8.45439 7.46433 7.9182V9.43886H9.39954V0.139938H7.46433V1.74816H7.4645Z" transform="translate(39.9326 4.16992)" fill="white"></path>
  <path d="M6.9199 6.98315C6.37272 7.54847 5.67863 7.8308 4.83795 7.8308C3.99695 7.8308 3.30285 7.54847 2.75599 6.98315C2.20864 6.418 1.93521 5.68689 1.93521 4.78948C1.93521 3.89224 2.20864 3.16113 2.75599 2.59581C3.30301 2.03066 3.99695 1.748 4.83795 1.748C5.67863 1.748 6.37288 2.03066 6.9199 2.59581C7.46692 3.16113 7.74068 3.89208 7.74068 4.78948C7.74068 5.68689 7.46692 6.418 6.9199 6.98315ZM4.83795 0C3.45559 0 2.30361 0.463351 1.38236 1.38972C0.460465 2.31626 0 3.44951 0 4.78965C0 6.12978 0.460465 7.26287 1.38236 8.1894C2.30378 9.11578 3.45559 9.57896 4.83795 9.57896C6.22031 9.57896 7.37195 9.11578 8.29385 8.1894C9.21526 7.26287 9.67589 6.12978 9.67589 4.78965C9.67589 3.44951 9.21526 2.31626 8.29385 1.38972C7.37195 0.463351 6.22031 0 4.83795 0Z" transform="translate(71.0986 4.16992)" fill="white"></path>
  <path d="M6.61799 6.99167C6.05333 7.55109 5.39128 7.8308 4.63085 7.8308C3.87042 7.8308 3.22551 7.54847 2.69564 6.98316C2.1656 6.418 1.90075 5.69261 1.90075 4.80683C1.90075 3.92154 2.1656 3.1842 2.69564 2.59581C3.22551 2.00725 3.87624 1.71297 4.64816 1.71297C5.41975 1.71297 6.08246 2.00725 6.63531 2.59581C7.18832 3.1842 7.4645 3.92416 7.4645 4.81551C7.4645 5.70702 7.18233 6.4324 6.61799 6.99167ZM8.08675 1.29349C7.21112 0.431271 6.15704 0 4.9245 0C3.6918 0 2.69564 0.588722 1.93521 1.76567V0.140102H0V12.8299H1.93521V8.04079C2.85695 9.06635 3.89647 9.5788 5.0541 9.5788C6.21173 9.5788 7.22537 9.13034 8.09501 8.23294C8.96464 7.33586 9.39987 6.17021 9.39987 4.73694C9.39987 3.30368 8.96189 2.15586 8.08675 1.29349Z" transform="translate(81.9121 4.16992)" fill="white"></path>
  <path d="M4.99375 3.51318C4.34852 3.51318 3.74664 3.67669 3.18797 4.00256C2.62914 4.32908 2.21171 4.7777 1.93537 5.34874V0H0V12.9522H1.93537V7.91804C1.93537 7.05566 2.18291 6.40032 2.67849 5.95154C3.17341 5.50308 3.75538 5.27869 4.42359 5.27869C5.82877 5.27869 6.53159 6.13502 6.53159 7.84799V12.9522H8.46696V7.2537C8.46696 6.04189 8.14726 5.11568 7.50785 4.47458C6.86845 3.83397 6.03036 3.51318 4.99375 3.51318Z" transform="translate(61.5996 0.656738)" fill="white"></path>
  <path d="M8.40629 6.64207C7.77837 6.09443 6.84531 5.66921 5.60711 5.36609C4.36874 5.0633 3.55961 4.78048 3.1794 4.51828C2.79935 4.25624 2.60924 3.87751 2.60924 3.38208C2.60924 2.88698 2.79935 2.51692 3.1794 2.2724C3.55961 2.02755 4.04613 1.90512 4.63958 1.90512C5.23272 1.90512 5.83426 2.01003 6.4452 2.21986C7.05548 2.42952 7.53924 2.69761 7.89664 3.02397L8.98486 1.46829C8.43202 1.00248 7.77546 0.640769 7.0152 0.384625C6.25493 0.128318 5.48868 0 4.71725 0C3.519 0 2.51395 0.306063 1.70191 0.917535C0.889865 1.52933 0.483923 2.40039 0.483923 3.53069C0.483923 4.661 0.840838 5.50014 1.55499 6.04778C1.91191 6.33895 2.32109 6.57512 2.78171 6.75549C3.2425 6.93634 3.91637 7.13439 4.80364 7.34978C5.69043 7.56566 6.31528 7.80429 6.67818 8.06649C7.04108 8.32869 7.22261 8.69564 7.22261 9.16766C7.22261 9.63969 7.0296 10.0184 6.64356 10.3039C6.25752 10.5896 5.73638 10.7322 5.07982 10.7322C3.76671 10.7322 2.49938 10.1962 1.27849 9.12396L0 10.6796C1.46277 11.9967 3.13879 12.655 5.02805 12.655C6.31803 12.655 7.36062 12.3229 8.15552 11.6586C8.95024 10.9945 9.34776 10.1294 9.34776 9.06291C9.34776 7.99644 9.03405 7.19003 8.40629 6.64207Z" transform="translate(50.8799 1.09375)" fill="white"></path>
</svg>
