<?xml version="1.0" encoding="UTF-8"?>
<svg xmlns="http://www.w3.org/2000/svg" width="120" height="34" viewBox="0 0 120 34" fill="none">
  <g clip-path="url(#clip0)">
    <path d="M25.7682 6.46616C25.7556 6.39602 25.72 6.33194 25.6671 6.28376C25.6141 6.23559 25.5467 6.20599 25.4751 6.19951L22.7862 5.99953C22.7862 5.99953 20.998 4.24233 20.8044 4.04768C20.6108 3.85303 20.2236 3.91169 20.0757 3.95436L19.0754 4.261C18.4785 2.55713 17.4244 0.991923 15.5798 0.991923H15.4238C14.886 0.30131 14.2434 0 13.6787 0C9.36293 0 7.30051 5.35158 6.65247 8.07136L3.61933 9.00196C2.68358 9.2926 2.654 9.32193 2.54375 10.1965C2.44964 10.8578 0 29.6457 0 29.6457L19.0916 33.1947L29.436 30.9736C29.436 30.9736 25.7897 6.63415 25.7682 6.46616ZM18.0133 4.58097L16.3999 5.07693V4.73563C16.4178 3.85826 16.2878 2.98409 16.0154 2.14916C16.97 2.26382 17.6046 3.34107 18.0133 4.58097ZM14.8188 2.35448C15.1434 3.28109 15.292 4.25929 15.2571 5.23959V5.42624L11.9201 6.45016C12.5735 3.99168 13.7782 2.80245 14.8188 2.35448ZM13.5362 1.15191C13.7358 1.15633 13.9291 1.22149 14.0901 1.33856C12.708 1.98384 11.2237 3.60771 10.5945 6.85546L7.95661 7.6554C8.70414 5.18892 10.4466 1.15191 13.5469 1.15191H13.5362Z" fill="white"></path>
    <path d="M6.38357 2.27715L3.69462 2.07717C3.69462 2.07717 1.90647 0.319975 1.71286 0.125324C1.63791 0.0577832 1.54423 0.0141222 1.44397 0L0 29.2777L10.3444 27.0565C10.3444 27.0565 6.71163 2.71445 6.69012 2.54647C6.6774 2.47375 6.64013 2.40749 6.58443 2.35855C6.52873 2.30961 6.4579 2.28091 6.38357 2.27715Z" transform="translate(19.0918 3.91968)" fill="white"></path>
    <path d="M11.0758 0.49863L9.79048 4.261C9.01535 3.88477 8.16609 3.68266 7.3032 3.66905C5.29455 3.66905 5.19237 4.91695 5.19237 5.23159C5.19237 6.95146 9.70981 7.61007 9.70981 11.6311C9.70981 14.7988 7.68503 16.836 4.95305 16.836C1.67791 16.836 0 14.8148 0 14.8148L0.879289 11.9404C0.879289 11.9404 2.60022 13.4069 4.05494 13.4069C4.22942 13.4153 4.40378 13.3882 4.56733 13.3274C4.73089 13.2666 4.88018 13.1732 5.00607 13.0531C5.13196 12.9331 5.23178 12.7887 5.29942 12.629C5.36706 12.4693 5.40109 12.2976 5.39942 12.1244C5.39942 9.88189 1.69404 9.78057 1.69404 6.09819C1.69404 2.99977 3.93663 0 8.46483 0C10.2126 0.00266646 11.0758 0.49863 11.0758 0.49863Z" transform="translate(4.49023 11.3671)" fill="#011B33"></path>
    <path d="M7.36504 5.98087C6.33248 5.42358 5.80276 4.95695 5.80276 4.31433C5.80276 3.49573 6.53953 2.9811 7.68503 2.9811C8.55848 3.00155 9.41963 3.18991 10.2207 3.53573L11.1645 0.671948C11.1645 0.671948 10.296 0 7.74419 0C4.19477 0 1.73169 2.01584 1.73169 4.85029C1.73169 6.45016 2.88256 7.68473 4.42064 8.562C5.65756 9.26327 6.10124 9.7619 6.10124 10.4925C6.10124 11.2231 5.48009 11.8657 4.3319 11.8657C3.17002 11.8185 2.03275 11.519 1.00029 10.9885L0 13.8523C0 13.8523 1.49237 14.8468 4.00654 14.8468C7.66352 14.8468 10.2852 13.063 10.2852 9.8499C10.2826 8.11403 8.9569 6.8848 7.36504 5.98087Z" transform="translate(34.1152 12.9377)" fill="white"></path>
    <path d="M10.8177 5.99153C9.01874 5.99153 7.60435 6.8368 6.51533 8.1247L6.45617 8.09537L8.01846 0H3.95007L0 20.6037H4.06839L5.41286 13.5616C5.95065 10.8951 7.32739 9.26328 8.62616 9.26328C9.53771 9.26328 9.89265 9.87656 9.89265 10.7538C9.89235 11.3528 9.83292 11.9502 9.71519 12.5377L8.18248 20.6037H12.2509L13.8427 12.2737C14.0171 11.4074 14.1152 10.5277 14.1358 9.64458C14.1466 7.36476 12.9392 5.99153 10.8177 5.99153Z" transform="translate(45.2222 6.90613)" fill="white"></path>
    <path d="M8.13408 0C3.24288 0 0 4.38366 0 9.26328C0 12.391 1.94411 14.9055 5.60109 14.9055C10.4036 14.9055 13.6464 10.6392 13.6464 5.63956C13.6464 2.74645 11.9309 0 8.13408 0ZM6.13081 11.8071C4.746 11.8071 4.15712 10.6365 4.15712 9.17528C4.15712 6.8688 5.36446 3.09842 7.57478 3.09842C9.01874 3.09842 9.492 4.325 9.492 5.52224C9.492 8.00737 8.28197 11.8071 6.13081 11.8071Z" transform="translate(60.4312 12.8976)" fill="white"></path>
    <path d="M11.377 0C8.63423 0 7.07463 2.39981 7.07463 2.39981H7.01548L7.25211 0.237315H3.65697C3.4795 1.69853 3.15414 3.91969 2.83147 5.58623L0 20.3424H4.06839L5.18968 14.3802H5.27572C5.27572 14.3802 6.11199 14.9135 7.66352 14.9135C12.4391 14.9135 15.5637 10.0605 15.5637 5.15159C15.5637 2.42381 14.3563 0 11.377 0ZM7.48873 11.8657C6.87645 11.8747 6.28086 11.6677 5.80813 11.2818L6.48575 7.51141C6.95632 4.99694 8.28466 3.33041 9.69905 3.33041C10.936 3.33041 11.3124 4.47165 11.3124 5.55156C11.3205 8.15403 9.7582 11.8657 7.48873 11.8657Z" transform="translate(73.104 12.8976)" fill="white"></path>
    <path d="M2.32626 0.0026764C2.01787 0.00192743 1.71242 0.0621401 1.42777 0.179795C1.14312 0.297449 0.884972 0.470186 0.668416 0.687909C0.45186 0.905632 0.281241 1.16398 0.166527 1.44784C0.0518126 1.7317 -0.00469826 2.03539 0.000305486 2.34116C0.000305486 3.54107 0.763975 4.35967 1.91485 4.35967H1.974C2.28835 4.37182 2.60186 4.31987 2.89514 4.20703C3.18842 4.09419 3.45523 3.92288 3.67905 3.70367C3.90288 3.48447 4.07896 3.22205 4.19639 2.93265C4.31383 2.64325 4.37012 2.33303 4.36179 2.02119C4.37612 1.75237 4.33328 1.48357 4.23605 1.23224C4.13883 0.980906 3.98939 0.752659 3.79743 0.562313C3.60548 0.371966 3.37531 0.223774 3.12186 0.127361C2.8684 0.0309484 2.59734 -0.0115322 2.32626 0.0026764Z" transform="translate(92.147 7.10608)" fill="white"></path>
    <path d="M0 14.2922H4.06839L6.83801 0H2.74004L0 14.2922Z" transform="translate(88.7866 13.2177)" fill="white"></path>
    <path d="M9.57267 6.57813H6.73851L6.88641 5.90618C7.12035 4.53296 7.94586 3.30639 9.30647 3.30639C9.74644 3.30736 10.1836 3.37572 10.6025 3.50904L11.4092 0.351954C11.4092 0.351954 10.702 0.00264471 9.1989 0.00264471C7.75414 -0.0399497 6.34196 0.433148 5.21926 1.33587C3.83445 2.50645 3.18641 4.19965 2.86105 5.89552L2.74273 6.56747H0.860468L0.268895 9.60723H2.15116L0 20.889H4.0657L6.21686 9.60723H9.008L9.57267 6.57813Z" transform="translate(96.4014 6.61017)" fill="white"></path>
    <path d="M11.1699 0C11.1699 0 8.62884 6.35417 7.48603 9.82056H7.42689C7.34891 8.70332 6.42659 0 6.42659 0H2.15116L4.5981 13.1243C4.63022 13.2364 4.63891 13.3538 4.62366 13.4694C4.6084 13.5849 4.5695 13.6961 4.50936 13.7963C3.97926 14.769 3.22122 15.6012 2.29905 16.2227C1.59265 16.7112 0.818137 17.0947 0 17.3613L1.12129 20.7824C2.60936 20.3892 3.97582 19.6361 5.09824 18.5905C6.95631 16.8653 8.66649 14.2042 10.4331 10.5912L15.4158 0.0106681L11.1699 0Z" transform="translate(104.584 13.2177)" fill="white"></path>
  </g>
  <defs>
    <clipPath id="clip0">
      <rect width="120" height="34" fill="white"></rect>
    </clipPath>
  </defs>
</svg>
