<?xml version="1.0" encoding="UTF-8"?>
<svg xmlns="http://www.w3.org/2000/svg" width="192" height="28" viewBox="0 0 192 28" fill="none">
  <path d="M90.3065 5.74371L84.327 18.9657H85.8456L87.4011 15.4958H94.5425L96.0796 18.9657H97.6729L91.6934 5.74371H90.3065ZM87.9821 14.1459L90.9814 7.46904L93.9616 14.1459H87.9821ZM47.2537 11.689C44.3676 11.07 43.6927 10.3761 43.6927 9.13807V9.10032C43.6927 7.91924 44.7798 6.98107 46.4856 6.98107C47.8347 6.98107 49.0535 7.41275 50.2716 8.40648L51.1338 7.26244C49.8032 6.19391 48.4349 5.64968 46.5226 5.64968C44.0301 5.64968 42.2118 7.16912 42.2118 9.2321V9.26913C42.2118 11.4261 43.5987 12.4013 46.6166 13.0581C49.3717 13.6394 50.0281 14.3332 50.0281 15.5521V15.5898C50.0281 16.8842 48.8656 17.8216 47.1035 17.8216C45.286 17.8216 43.9739 17.2026 42.6055 15.9645L41.6871 17.053C43.2612 18.4592 44.967 19.153 47.0473 19.153C49.653 19.153 51.5275 17.6906 51.5275 15.4395V15.4025C51.5275 13.3958 50.1777 12.3266 47.2537 11.689ZM67.7218 12.4014V12.3643C67.7218 8.74415 65.0414 5.61193 61.0489 5.61193C57.0564 5.61193 54.3389 8.78189 54.3389 12.4014V12.4391C54.3389 16.0586 57.0186 19.1908 61.0112 19.1908C62.6237 19.1908 64.0291 18.6658 65.1354 17.8031L66.8782 19.3596L67.8906 18.2533L66.1663 16.7901C67.1409 15.5898 67.7218 14.0334 67.7218 12.4014ZM65.0792 15.8712L62.6237 13.6394L61.6298 14.7457L64.0853 16.8464C63.2609 17.4654 62.2108 17.8216 61.0489 17.8216C58.0502 17.8216 55.8753 15.3832 55.8753 12.4013V12.3643C55.8753 9.3817 58.0125 6.98108 61.0111 6.98108C64.0105 6.98108 66.1848 9.41946 66.1848 12.4014V12.4391C66.1848 13.752 65.7911 14.933 65.0792 15.8712ZM80.8414 13.4706C80.8414 16.3399 79.3043 17.8031 76.8866 17.8031C74.3934 17.8031 72.8755 16.2089 72.8755 13.3766V5.83704H71.3947V13.4706C71.3947 17.1841 73.606 19.1723 76.8488 19.1723C80.1294 19.1723 82.3222 17.1841 82.3222 13.358V5.83704H80.8413V13.4706H80.8414ZM171.782 17.8216C168.895 17.8216 166.703 15.4395 166.703 12.4014V12.3643C166.703 9.34466 168.877 6.98108 171.782 6.98108C173.563 6.98108 174.8 7.73118 175.906 8.78191L176.918 7.69414C175.606 6.45608 174.182 5.61194 171.801 5.61194C167.94 5.61194 165.166 8.68787 165.166 12.4014V12.4391C165.166 16.2089 167.959 19.1908 171.745 19.1908C174.125 19.1908 175.625 18.2719 176.993 16.8842L176.018 15.9275C174.762 17.1278 173.581 17.8216 171.782 17.8216ZM156.582 5.74371L150.602 18.9657H152.121L153.676 15.4958H160.818L162.355 18.9657H163.948L157.969 5.74371H156.582ZM154.257 14.1459L157.257 7.46904L160.237 14.1459H154.257ZM181.903 17.615V13.0204H189.063V11.6698H181.903V7.18765H189.907V5.83704H180.422V18.9657H190V17.6151H181.903V17.615ZM116.228 13.0204H123.388V11.6698H116.228V7.18765H124.232V5.83704H114.747V18.9657H124.325V17.6151H116.228V13.0204H116.228ZM110.83 9.77562V9.73858C110.83 8.7071 110.455 7.78746 109.818 7.1499C108.993 6.325 107.7 5.83704 106.088 5.83704H100.446V18.9657H101.927V13.8645H105.676L109.48 18.9657H111.299L107.269 13.6017C109.331 13.227 110.83 11.9511 110.83 9.77562ZM101.927 12.5324V7.20617H105.975C108.093 7.20617 109.331 8.18138 109.331 9.79486V9.8319C109.331 11.5202 107.925 12.5324 105.957 12.5324H101.927ZM132.666 11.689C129.779 11.07 129.104 10.3761 129.104 9.13807V9.10032C129.104 7.91924 130.191 6.98107 131.897 6.98107C133.247 6.98107 134.465 7.41275 135.683 8.40648L136.546 7.26244C135.215 6.19391 133.846 5.64968 131.935 5.64968C129.442 5.64968 127.623 7.16912 127.623 9.2321V9.26913C127.623 11.4261 129.011 12.4013 132.028 13.0581C134.784 13.6394 135.44 14.3332 135.44 15.5521V15.5898C135.44 16.8842 134.278 17.8216 132.516 17.8216C130.697 17.8216 129.385 17.2026 128.017 15.9645L127.099 17.053C128.673 18.4592 130.379 19.153 132.459 19.153C135.065 19.153 136.939 17.6906 136.939 15.4395V15.4025C136.939 13.3958 135.59 12.3266 132.666 11.689ZM145.523 5.83704H140.612V18.9657H142.093V14.3333H145.279C148.072 14.3333 150.434 12.8701 150.434 10.0385V10.0007C150.434 7.41276 148.485 5.83704 145.523 5.83704ZM148.934 10.0948C148.934 11.8201 147.51 12.9826 145.335 12.9826H142.093V7.20617H145.411C147.529 7.20617 148.934 8.18138 148.934 10.057V10.0948ZM20.9472 6.89804C21.3886 6.45638 21.3886 5.74167 20.9472 5.30001C20.5059 4.85839 19.7915 4.85839 19.3502 5.30001L8.81018 15.8462C7.3129 17.3444 4.8768 17.3444 3.38031 15.847C1.88307 14.3489 1.88307 11.9113 3.38031 10.4132L11.8593 1.92924C12.3006 1.48758 12.3006 0.772873 11.8593 0.331212C11.4179 -0.110404 10.7036 -0.110404 10.2622 0.331212L1.78323 8.81515C-0.594409 11.1942 -0.594409 15.0659 1.78323 17.445C4.16091 19.8241 8.0296 19.8233 10.4072 17.4442L20.9472 6.89804ZM5.29711 13.9291C5.73847 14.3707 6.4528 14.3707 6.89416 13.9291L17.4342 3.38289C18.9314 1.88477 21.3675 1.88477 22.864 3.38209C23.3054 3.82375 24.0197 3.82375 24.4611 3.38209C24.9025 2.94048 24.9025 2.22577 24.4611 1.7841C22.0834 -0.594972 18.2148 -0.594173 15.8371 1.7849L5.29712 12.3311C4.85571 12.7727 4.85571 13.4874 5.29711 13.9291ZM27.9742 12.3311C27.5328 11.8894 26.8185 11.8894 26.3771 12.3311L15.8371 22.8773C14.3399 24.3754 11.9037 24.3754 10.4072 22.878C9.96588 22.4364 9.25154 22.4364 8.81018 22.878C8.36878 23.3197 8.36878 24.0344 8.81018 24.476C11.1878 26.8551 15.0565 26.8543 17.4341 24.4753L27.9741 13.9291C28.4155 13.4874 28.4155 12.7727 27.9742 12.3311ZM22.864 8.81595L12.324 19.3621C11.8826 19.8038 11.8826 20.5185 12.324 20.9601C12.7654 21.4018 13.4797 21.4018 13.9211 20.9601L24.4611 10.4139C25.9584 8.91582 28.3945 8.91582 29.8909 10.4132C31.3882 11.9113 31.3882 14.3489 29.8909 15.847L21.412 24.3309C20.9706 24.7725 20.9706 25.4873 21.412 25.9289C21.8534 26.3706 22.5677 26.3706 23.0091 25.9289L31.488 17.445C33.8657 15.066 33.8657 11.1942 31.488 8.81516C29.1103 6.43612 25.2417 6.43688 22.864 8.81595Z" transform="translate(1 1)" fill="white" stroke="white" stroke-width="0.5"></path>
</svg>
