<?xml version="1.0" encoding="UTF-8"?>
<svg xmlns="http://www.w3.org/2000/svg" width="157" height="35" viewBox="0 0 157 35" fill="none">
  <path d="M0 17.1264V13.7678H1.70293V17.1264H0ZM17.4222 5.56352C17.3698 4.84565 17.1602 4.17907 16.8459 3.61503C16.5315 3.05099 16.1123 2.58948 15.5883 2.2049C15.0643 1.82033 14.488 1.53831 13.7806 1.35885C13.0994 1.17938 12.3659 1.07683 11.6061 1.07683C10.5581 1.07683 9.58878 1.30756 8.77661 1.69213C7.93825 2.10235 7.25708 2.66641 6.7331 3.38429C6.18293 4.07653 5.76375 4.89693 5.47556 5.79427C5.18737 6.69161 5.05638 7.6146 5.05638 8.58886C5.05638 9.71694 5.18737 10.7425 5.44936 11.6911C5.71135 12.6397 6.13053 13.4858 6.6807 14.178C7.23088 14.8703 7.93825 15.4343 8.72421 15.8189C9.56258 16.2034 10.5319 16.4086 11.6061 16.4086C12.4182 16.4086 13.1518 16.2804 13.8068 16.024C14.488 15.7676 15.0905 15.4087 15.6145 14.9472C16.1385 14.4857 16.5839 13.9473 16.8983 13.3063C17.2126 12.6654 17.4484 11.9475 17.5794 11.204H18.837C18.706 12.2039 18.4178 13.0756 17.9986 13.8704C17.5794 14.6651 17.0292 15.3061 16.4005 15.8445C15.7717 16.3829 15.0643 16.7931 14.2522 17.0751C13.44 17.3572 12.5754 17.4854 11.6585 17.4854C10.2437 17.4854 9.0648 17.229 8.06924 16.7675C7.07369 16.2547 6.26152 15.6394 5.63275 14.7934C5.00398 13.9729 4.5324 13.0243 4.21801 11.9475C3.92983 10.8707 3.77263 9.74258 3.77263 8.58886C3.77263 7.43513 3.92983 6.30706 4.29661 5.25588C4.6372 4.23035 5.13497 3.30736 5.81614 2.53821C6.49731 1.76906 7.28328 1.1281 8.27883 0.692246C9.24819 0.230756 10.3747 0 11.6585 0C12.5754 0 13.4662 0.128203 14.2522 0.333304C15.0643 0.564054 15.7979 0.897363 16.4005 1.35885C17.0292 1.82034 17.5532 2.38439 17.9462 3.07662C18.3392 3.76886 18.575 4.58927 18.6798 5.56352H17.4484H17.4222ZM20.6971 8.76833C20.6971 7.56333 20.8543 6.43526 21.2211 5.40972C21.5616 4.38419 22.0594 3.43555 22.7406 2.61512C23.4218 1.7947 24.2077 1.17938 25.2033 0.692246C26.1726 0.230756 27.2992 0 28.5829 0C29.8405 0 30.967 0.230756 31.9626 0.692246C32.9319 1.15374 33.7703 1.7947 34.4253 2.61512C35.1064 3.43555 35.578 4.33291 35.9448 5.40972C36.2854 6.48653 36.4688 7.56333 36.4688 8.76833C36.4688 9.97334 36.3116 11.1014 35.9448 12.1526C35.6042 13.2294 35.1064 14.1268 34.4253 14.9472C33.7441 15.742 32.9581 16.3573 31.9626 16.8188C30.9932 17.2803 29.8667 17.511 28.5829 17.511C27.3254 17.511 26.1988 17.2803 25.2033 16.8188C24.2339 16.3573 23.3956 15.7163 22.7406 14.9472C22.0856 14.178 21.5616 13.2294 21.2211 12.1526C20.8543 11.1014 20.6971 9.9477 20.6971 8.76833ZM21.9284 8.76833C21.9284 9.76823 22.0594 10.7168 22.3476 11.6655C22.6358 12.5628 23.055 13.3832 23.6052 14.1011C24.1553 14.819 24.8627 15.383 25.6487 15.7932C26.487 16.2034 27.404 16.4086 28.4781 16.4086C29.5523 16.4086 30.4954 16.1778 31.3076 15.7932C32.146 15.383 32.8271 14.7933 33.3511 14.1011C33.9013 13.3832 34.3205 12.5628 34.6087 11.6655C34.8968 10.7681 35.0278 9.79387 35.0278 8.76833C35.0278 7.7428 34.8706 6.81981 34.6087 5.87118C34.3205 4.97384 33.9013 4.15343 33.3511 3.43556C32.8009 2.71769 32.0936 2.15362 31.3076 1.74341C30.4692 1.33319 29.5523 1.1281 28.4781 1.1281C27.404 1.1281 26.4608 1.35883 25.6487 1.74341C24.8103 2.15362 24.1291 2.74333 23.6052 3.43556C23.055 4.15343 22.6358 4.97384 22.3476 5.87118C22.0856 6.81981 21.9284 7.76844 21.9284 8.76833ZM39.0625 0.41022H40.32V3.82014H40.3724C40.5034 3.28173 40.713 2.82023 41.0798 2.3331C41.3942 1.87161 41.8133 1.46141 42.3111 1.10247C42.7827 0.769166 43.3067 0.487127 43.9093 0.282026C44.4856 0.102556 45.1406 0 45.7694 0C46.6077 0 47.3151 0.102565 47.8915 0.307665C48.4941 0.538415 49.018 0.769165 49.4372 1.1281C49.8564 1.48705 50.197 1.84596 50.4328 2.25618C50.6947 2.66639 50.8519 3.10224 50.9567 3.53809H51.0091C51.5331 2.38437 52.1881 1.48704 53.0526 0.897356C53.9172 0.307666 55.0438 0 56.4323 0C57.1921 0 57.9518 0.128203 58.5806 0.333304C59.2094 0.564054 59.8119 0.897363 60.2835 1.35885C60.7551 1.82034 61.1219 2.43567 61.4101 3.1279C61.6721 3.84577 61.8031 4.69184 61.8031 5.6661V17.0495H60.5193V5.58916C60.5193 4.51235 60.3621 3.71758 59.9953 3.07662C59.681 2.48694 59.2618 1.99979 58.8164 1.69213C58.371 1.38447 57.9256 1.17939 57.4279 1.10247C56.9825 1.05121 56.6157 0.974272 56.3799 0.974272C55.6201 0.974272 54.8604 1.10246 54.2316 1.35885C53.6028 1.61523 53.0003 2.02544 52.5287 2.51257C52.0571 3.05098 51.6903 3.6663 51.4021 4.46108C51.1401 5.25587 51.0091 6.12759 51.0091 7.10184V17.0495H49.7516V5.58916C49.7516 4.56363 49.5944 3.71758 49.28 3.10226C48.9656 2.48694 48.5727 2.02543 48.1535 1.71777C47.7343 1.41011 47.2889 1.20502 46.8173 1.1281C46.3719 1.02555 46.0052 0.999911 45.717 0.999911C45.1144 0.999911 44.4856 1.1281 43.8569 1.33321C43.2281 1.5896 42.6255 1.92288 42.1015 2.43565C41.5776 2.94841 41.1322 3.56374 40.8178 4.35853C40.5034 5.15332 40.2938 6.05067 40.2938 7.12748V17.0495H39.0363V0.358942H39.0625L39.0625 0.41022Z" transform="translate(94.4468 17.489)" fill="white"></path>
  <path d="M2.48889 0.643338C0.654971 1.59196 0 3.15592 0 7.4888C0 7.4888 0.916959 6.61707 2.2793 6.12994C3.27485 5.79664 4.11322 5.25825 4.611 4.89931C6.15673 3.79686 6.36632 2.38677 6.36632 0.00239889C6.36632 0.00239889 3.85123 -0.0745617 2.48889 0.643338V0.643338Z" transform="translate(49.8301 0.0268555)" fill="white"></path>
  <path d="M41.5776 1.69575C40.1104 2.97767 39.665 5.00309 39.665 5.00309L34.7397 23.514L30.6788 8.33607C30.2859 6.74649 29.5523 4.72108 28.4257 3.38788C27.011 1.69575 24.1029 1.5932 23.7885 1.5932C23.4742 1.5932 20.5399 1.69575 19.099 3.41352C17.9724 4.77235 17.2388 6.77213 16.8459 8.36171L12.785 23.5396L7.91205 5.00309C7.91205 5.00309 7.49287 2.95203 5.99954 1.69575C3.58924 -0.380949 0 0.0549024 0 0.0549024L9.35298 34.7692C9.35298 34.7692 12.4444 35 13.9902 34.2052C16.0075 33.2053 17.003 32.4105 18.2344 27.6674C19.3347 23.4627 22.4 11.105 22.6882 10.2077C22.8192 9.77182 23.0026 8.72065 23.7885 8.72065C24.6007 8.72065 24.7579 9.74618 24.8889 10.2077C25.1771 11.0794 28.2161 23.4627 29.3427 27.6674C30.574 32.3849 31.5434 33.154 33.5869 34.2052C35.1326 35 38.2241 34.7692 38.2241 34.7692L47.5771 0.0805412C47.5771 0.0805412 43.9878 -0.355309 41.5776 1.69575V1.69575ZM56.1965 5.72098C56.1965 5.72098 55.6201 6.59268 54.284 7.36183C53.4194 7.82332 52.6073 8.15661 51.7165 8.56682C50.2494 9.25906 49.8302 10.0539 49.8302 11.2332V34.7692C49.8302 34.7692 52.2143 35.0513 53.7338 34.3077C55.7249 33.3079 56.1703 32.3592 56.1965 28.0263V5.72098ZM79.5659 17.489L91.4339 0.157428C91.4339 0.157428 86.43 -0.688612 83.9411 1.54192C82.3429 2.95203 80.5614 5.49023 80.5614 5.49023L76.2124 11.6947C75.9766 12.0023 75.7408 12.3613 75.2955 12.3613C74.8501 12.3613 74.5619 12.028 74.3785 11.6947L69.9771 5.51587C69.9771 5.51587 68.2218 2.97767 66.5974 1.56756C64.1347 -0.662973 59.1046 0.183067 59.1046 0.183067L70.9989 17.4633L59.1046 34.7179C59.1046 34.7179 64.3443 35.3845 66.807 33.154C68.4052 31.7439 69.9509 29.4108 69.9509 29.4108L74.2999 23.2319C74.5357 22.9243 74.7715 22.5654 75.2169 22.5654C75.6622 22.5654 75.9504 22.8986 76.1338 23.2319L80.4828 29.4108C80.4828 29.4108 82.1072 31.6926 83.6791 33.154C86.1418 35.3845 91.3029 34.7179 91.3029 34.7179L79.5659 17.489Z" fill="white"></path>
</svg>
