<?xml version="1.0" encoding="UTF-8"?>
<svg xmlns="http://www.w3.org/2000/svg" width="156" height="36" viewBox="0 0 156 36" fill="none">
  <path d="M18.8707 0H12.7624V0.662569C14.673 0.662569 14.9802 1.08127 14.9802 3.55878V8.02517C14.9802 10.5024 14.6733 10.956 12.7624 10.956C11.2954 10.7468 10.3055 9.94413 8.94052 8.4089L7.37097 6.66448C9.48649 6.28016 10.6124 4.91976 10.6124 3.38425C10.6124 1.46559 9.00891 0 6.00575 0H0V0.662569C1.91063 0.662569 2.21782 1.08127 2.21782 3.55878V8.02517C2.21782 10.5024 1.91063 10.956 0 10.956V11.6189H6.79052V10.956C4.87988 10.956 4.5727 10.5024 4.5727 8.02517V6.76937H5.15258L8.94052 11.6189H18.8707C23.7503 11.6189 25.8661 8.96746 25.8661 5.79183C25.8661 2.61678 23.7506 0 18.8707 0ZM4.57298 5.68693V1.04689H5.97184C7.50718 1.04689 8.18994 2.12845 8.18994 3.38454C8.18994 4.60596 7.50718 5.68723 5.97184 5.68723H4.57298V5.68693ZM18.9733 10.5374H18.7342C17.506 10.5374 17.3353 10.2235 17.3353 8.6184V1.04689C17.3353 1.04689 18.8368 1.04689 18.9733 1.04689C22.5221 1.04689 23.1701 3.69834 23.1701 5.75716C23.1701 7.88531 22.5218 10.5374 18.9733 10.5374Z" transform="translate(71.127 14.1702)" fill="white"></path>
  <path d="M15.4922 10.468L17.8468 3.34957C18.5296 1.29105 18.2224 0.698122 16.0385 0.698122V0H22.4537V0.698122C20.304 0.698122 19.7922 1.22142 18.9391 3.76856L15.0486 15.7016H14.6052L11.1241 4.7802L7.57558 15.7016H7.1319L3.34425 3.76856C2.52529 1.22142 1.97931 0.698122 0 0.698122V0H7.57558V0.698122C5.56207 0.698122 5.0158 1.18645 5.73276 3.34957L8.01897 10.468L11.4655 0H12.1141L15.4922 10.468Z" transform="translate(36.6284 10.6809)" fill="white"></path>
  <path d="M6.82471 12.5265C3.07126 12.5265 0 9.70055 0 6.24578C0 2.82657 3.07155 0 6.82471 0C10.5784 0 13.6494 2.82657 13.6494 6.24578C13.6494 9.70055 10.5784 12.5265 6.82471 12.5265ZM6.82471 1.08244C3.68563 1.08244 2.59339 3.97806 2.59339 6.24608C2.59339 8.54935 3.68563 11.4103 6.82471 11.4103C9.99856 11.4103 11.0905 8.54935 11.0905 6.24608C11.0905 3.97806 9.99856 1.08244 6.82471 1.08244Z" transform="translate(56.8965 13.7156)" fill="white"></path>
  <path d="M7.81437 14.4108V15.1086H0V14.4108C2.28649 14.4108 2.69597 13.8179 2.69597 10.3282V4.74582C2.69597 1.25609 2.28649 0.698123 0 0.698123V0H7.0635C10.5782 0 12.5238 1.84932 12.5238 4.32712C12.5238 6.7347 10.5782 8.61869 7.0635 8.61869H5.11839V10.3279C5.11839 13.8179 5.52787 14.4108 7.81437 14.4108ZM7.0635 1.25609H5.11839V7.32764H7.0635C8.97471 7.32764 9.86178 5.96695 9.86178 4.32712C9.86178 2.65234 8.97471 1.25609 7.0635 1.25609Z" transform="translate(97.6055 10.6807)" fill="white"></path>
  <path d="M22.6578 8.33927L22.4871 8.96717C22.1802 10.1187 21.8043 10.5374 19.3816 10.5374H18.9037C17.1296 10.5374 16.8224 10.1187 16.8224 7.64144V6.03658C19.4842 6.03658 19.6891 6.28045 19.6891 8.0951H20.3374V2.89591H19.6891C19.6891 4.71027 19.4842 4.95443 16.8224 4.95443V1.04689H18.6988C21.1221 1.04689 21.4971 1.46559 21.8043 2.61708L21.9753 3.27965H22.521L22.2825 0H12.2497V0.662569C14.1603 0.662569 14.4678 1.08127 14.4678 3.55878V8.02517C14.4678 10.2914 14.2069 10.8623 12.7003 10.9437C11.2684 10.7201 10.2853 9.9215 8.94023 8.4089L7.3704 6.66448C9.4862 6.28016 10.6124 4.91976 10.6124 3.38425C10.6124 1.46559 9.00862 0 6.00575 0H0V0.662569C1.91063 0.662569 2.21781 1.08127 2.21781 3.55878V8.02517C2.21781 10.5024 1.91092 10.956 0 10.956V11.6189H6.7908V10.956C4.88017 10.956 4.5727 10.5024 4.5727 8.02517V6.76937H5.15287L8.94051 11.6189H22.9652L23.1701 8.33956H22.6578V8.33927ZM4.57241 5.68693V1.04689H5.97126C7.5069 1.04689 8.18966 2.12845 8.18966 3.38454C8.18966 4.60596 7.5069 5.68723 5.97126 5.68723H4.57241V5.68693Z" transform="translate(110.916 14.1702)" fill="white"></path>
  <path d="M4.26552 12.5262C2.90057 12.5262 1.70604 11.7937 1.19425 11.3398C1.02356 11.5146 0.716663 12.0379 0.64856 12.5262H0V7.71166H0.682471C0.955747 10.0143 2.525 11.375 4.53851 11.375C5.63046 11.375 6.51782 10.7471 6.51782 9.70055C6.51782 8.79352 5.73305 8.09539 4.33391 7.43253L2.38879 6.49054C1.02356 5.82709 0 4.6756 0 3.14067C0 1.46588 1.53563 0.0355532 3.65144 0.0355532C4.77759 0.0355532 5.73276 0.45425 6.31322 0.942582C6.48362 0.803017 6.65431 0.418991 6.7569 0H7.40517V4.11763H6.68851C6.44943 2.47751 5.56236 1.11682 3.75402 1.11682C2.79856 1.11682 1.91092 1.67508 1.91092 2.54773C1.91092 3.45476 2.62759 3.9431 4.26581 4.71085L6.14224 5.65285C7.78046 6.45528 8.42845 7.74692 8.42845 8.79352C8.42845 10.9913 6.55172 12.5262 4.26552 12.5262Z" transform="translate(136.234 13.7158)" fill="white"></path>
  <path d="M4.2658 12.5262C2.90057 12.5262 1.70603 11.7937 1.19454 11.3398C1.02385 11.5146 0.716953 12.0379 0.648849 12.5262H0.000289391V7.71166H0.682752C0.95574 10.0143 2.52528 11.375 4.53879 11.375C5.63074 11.375 6.5181 10.7471 6.5181 9.70055C6.5181 8.79352 5.73333 8.09539 4.3339 7.43253L2.38879 6.49054C1.02385 5.82709 0 4.6756 0 3.14067C0 1.46588 1.53562 0.0355532 3.65143 0.0355532C4.77758 0.0355532 5.73275 0.45425 6.31321 0.942582C6.48361 0.803017 6.65432 0.418991 6.75633 0H7.40488V4.11763H6.68851C6.44943 2.47751 5.56235 1.11682 3.75401 1.11682C2.79855 1.11682 1.91091 1.67508 1.91091 2.54773C1.91091 3.45476 2.62758 3.9431 4.2658 4.71085L6.14224 5.65285C7.78046 6.45528 8.42845 7.74692 8.42845 8.79352C8.42845 10.9913 6.55172 12.5262 4.2658 12.5262Z" transform="translate(146.744 13.7158)" fill="white"></path>
  <path d="M0 6.28427C0 12.3964 3.47385 17.6784 8.51121 20.1815L1.30747 0C0.46954 1.92042 0 4.04564 0 6.28427Z" transform="translate(2.50293 11.7151)" fill="white"></path>
  <path d="M22.8126 14.6617C22.8126 12.7534 22.1422 11.4317 21.5672 10.4031C20.8017 9.13112 20.0842 8.05397 20.0842 6.78201C20.0842 5.36255 21.1371 4.04123 22.6201 4.04123C22.6871 4.04123 22.7506 4.04975 22.8158 4.05357C20.129 1.53669 16.5494 0 12.6178 0C7.34195 0 2.70029 2.76781 0 6.96006C0.35431 6.97094 0.688218 6.97858 0.971839 6.97858C2.55144 6.97858 4.99655 6.7826 4.99655 6.7826C5.81063 6.73353 5.90661 7.95612 5.09339 8.05455C5.09339 8.05455 4.27529 8.15298 3.36494 8.20176L8.86437 24.9276L12.1693 14.7928L9.81638 8.20117C9.00316 8.1524 8.23276 8.05396 8.23276 8.05396C7.41897 8.00519 7.51437 6.73294 8.32816 6.78201C8.32816 6.78201 10.8221 6.97799 12.306 6.97799C13.8853 6.97799 16.3307 6.78201 16.3307 6.78201C17.1454 6.73294 17.2411 7.95553 16.4276 8.05396C16.4276 8.05396 15.6078 8.1524 14.6991 8.20117L20.1566 24.8004L21.6629 19.6535C22.3158 17.5177 22.8126 15.9836 22.8126 14.6617Z" transform="translate(4.98584 2.55859)" fill="white"></path>
  <path d="M4.53103 0L0 13.4626C1.35287 13.8693 2.78362 14.0917 4.26609 14.0917C6.02471 14.0917 7.71121 13.7809 9.28103 13.2164C9.24052 13.1503 9.20373 13.0801 9.17356 13.0037L4.53103 0Z" transform="translate(13.3374 19.3501)" fill="white"></path>
  <path d="M5.65948 0C5.72443 0.491859 5.76121 1.01986 5.76121 1.58782C5.76121 3.15477 5.475 4.91624 4.61293 7.11873L0 20.7559C4.48965 18.0789 7.50948 13.1054 7.50948 7.40873C7.50977 4.72408 6.83908 2.19955 5.65948 0Z" transform="translate(25.1958 10.5911)" fill="white"></path>
  <path d="M17.604 0C7.89741 0 0 8.07453 0 17.9996C0 27.9258 7.89741 36 17.604 36C27.3103 36 35.2089 27.9258 35.2089 17.9996C35.2086 8.07453 27.3103 0 17.604 0ZM17.604 35.1749C8.34253 35.1749 0.807184 27.47 0.807184 17.9996C0.807184 8.52966 8.34224 0.825347 17.604 0.825347C26.8652 0.825347 34.4 8.52966 34.4 17.9996C34.4 27.47 26.8652 35.1749 17.604 35.1749Z" fill="white"></path>
</svg>
